<svg width="1.5vw" height="1.5vw" viewBox="0 0 24 24" fill="none" xmlns="http://www.w3.org/2000/svg">
<path fill-rule="evenodd" clip-rule="evenodd" d="M21.25 19.4V13.9893C20.1348 13.9893 19.2366 13.1023 19.2366 12.0009C19.2366 10.8996 20.1348 10.0116 21.25 10.0116V4.59998H2.75V10.0897C3.86525 10.0897 4.76343 10.8996 4.76343 12.0009C4.76343 13.1023 3.86525 13.9893 2.75 13.9893V19.4H21.25Z"  stroke-width="2.5" stroke-linecap="square"/>
<path d="M10.4117 10.0197C11.3274 9.24302 12.6707 9.24303 13.5864 10.0197V10.0197C14.0195 10.3871 14.3118 10.8934 14.4134 11.4522V11.4522C14.6282 12.6336 13.9566 13.7969 12.8261 14.2015V14.2015C12.2913 14.3929 11.7068 14.3929 11.172 14.2015V14.2015C10.0415 13.7969 9.3699 12.6336 9.58469 11.4522V11.4522C9.68629 10.8934 9.97858 10.3871 10.4117 10.0197V10.0197Z"  stroke-width="2.5" stroke-linecap="square"/>
</svg>
