<svg width="1.5vw" height="1.5vw" viewBox="0 0 24 24" fill="none" xmlns="http://www.w3.org/2000/svg">
<path d="M18.2264 13.4961C18.2264 15.0296 17.7716 16.5288 16.9196 17.8039C16.0676 19.079 14.8566 20.0728 13.4398 20.6597C12.023 21.2465 10.464 21.4001 8.95987 21.1009C7.45578 20.8017 6.07418 20.0632 4.98979 18.9788C3.9054 17.8945 3.16692 16.5129 2.86774 15.0088C2.56855 13.5047 2.72211 11.9456 3.30897 10.5288C3.89584 9.11199 4.88967 7.90101 6.16478 7.04901C7.43988 6.19701 8.939 5.74226 10.4726 5.74226L10.4726 13.4961H18.2264Z" stroke-width="2.5" stroke-linecap="square"/>
<path d="M13.5273 2.75018C15.5837 2.75018 17.5559 3.5671 19.01 5.02122C20.4641 6.47535 21.2811 8.44756 21.2811 10.504L13.5273 10.504L13.5273 2.75018Z" stroke-width="2.5" stroke-linecap="square"/>
</svg>
