<svg width="16vw" height="16.75vw" viewBox="0 0 260 269" xmlns="http://www.w3.org/2000/svg">
<path fill-rule="evenodd" clip-rule="evenodd" d="M43.2786 38.0991L85.1881 108.781L149.736 -0.000549316L115.921 8.81542L85.6868 62.8209L69.9982 31.1329L43.2786 38.0991ZM172.03 13.457L130.074 84.1127H259.17L234.415 60.027L171.23 61.5529L191.59 32.489L172.03 13.457ZM84.7193 158.942L0.853819 158.916L8.01331 132.917L44.0617 135.541L11.111 83.0619L20.1716 50.1602L84.7193 158.942ZM87.1375 255.094L129.094 184.438H-0.00195312L24.7521 208.524L87.9372 206.998L67.5774 236.062L87.1375 255.094ZM173.979 159.77L215.889 230.452L189.169 237.418L173.481 205.73L143.246 259.735L109.432 268.551L173.979 159.77ZM258.353 109.635L174.487 109.609L239.035 218.391L248.096 185.489L215.145 133.009L251.193 135.633L258.353 109.635Z"/>
</svg>
