<svg width="24" height="24" viewBox="0 0 24 24" fill="none" xmlns="http://www.w3.org/2000/svg">
<path d="M9.6582 14.134L14.1328 9.65942" stroke="black" stroke-width="2.5" stroke-linecap="square" stroke-linejoin="round"/>
<path d="M14.0661 14.0715H14.074" stroke="black" stroke-width="2.5" stroke-linecap="square" stroke-linejoin="round"/>
<path d="M9.71456 9.71897H9.72239" stroke="black" stroke-width="2.5" stroke-linecap="square" stroke-linejoin="round"/>
<path d="M12 2.75C13.5306 4.76856 16.0311 5.80432 18.5407 5.45926C18.1957 7.96888 19.2314 10.4694 21.25 12C19.2314 13.5306 18.1957 16.0311 18.5407 18.5407C16.0311 18.1957 13.5306 19.2314 12 21.25C10.4694 19.2314 7.96888 18.1957 5.45926 18.5407C5.80432 16.0311 4.76856 13.5306 2.75 12C4.76856 10.4694 5.80432 7.96888 5.45926 5.45926C7.96888 5.80432 10.4694 4.76856 12 2.75Z" stroke="black" stroke-width="2.5" stroke-linecap="square"/>
</svg>
