<svg width="0.875vw" height="0.75vw" viewBox="0 0 14 12" fill="none" xmlns="http://www.w3.org/2000/svg">
<path d="M11.8454 1.55467C10.9588 1.14133 9.99878 0.841333 8.99878 0.667999C8.99001 0.667719 8.98129 0.669364 8.97322 0.67282C8.96516 0.676275 8.95795 0.681457 8.95211 0.688C8.83211 0.908 8.69211 1.19467 8.59877 1.41467C7.53811 1.25467 6.45944 1.25467 5.39878 1.41467C5.30544 1.188 5.16544 0.908 5.03878 0.688C5.03211 0.674666 5.01211 0.667999 4.99211 0.667999C3.99211 0.841333 3.03878 1.14133 2.14544 1.55467C2.13878 1.55467 2.13211 1.56133 2.12544 1.568C0.312109 4.28133 -0.187891 6.92133 0.0587761 9.53467C0.0587761 9.548 0.0654427 9.56133 0.078776 9.568C1.27878 10.448 2.43211 10.9813 3.57211 11.3347C3.59211 11.3413 3.61211 11.3347 3.61878 11.3213C3.88544 10.9547 4.12544 10.568 4.33211 10.1613C4.34544 10.1347 4.33211 10.108 4.30544 10.1013C3.92544 9.95467 3.56544 9.78133 3.21211 9.58133C3.18544 9.568 3.18544 9.528 3.20544 9.508C3.27878 9.45467 3.35211 9.39467 3.42544 9.34133C3.43878 9.328 3.45878 9.328 3.47211 9.33467C5.76544 10.3813 8.23878 10.3813 10.5054 9.33467C10.5188 9.328 10.5388 9.328 10.5521 9.34133C10.6254 9.40133 10.6988 9.45467 10.7721 9.51467C10.7988 9.53467 10.7988 9.57467 10.7654 9.588C10.4188 9.79467 10.0521 9.96133 9.67211 10.108C9.64544 10.1147 9.63878 10.148 9.64544 10.168C9.85878 10.5747 10.0988 10.9613 10.3588 11.328C10.3788 11.3347 10.3988 11.3413 10.4188 11.3347C11.5654 10.9813 12.7188 10.448 13.9188 9.568C13.9321 9.56133 13.9388 9.548 13.9388 9.53467C14.2321 6.51467 13.4521 3.89467 11.8721 1.568C11.8654 1.56133 11.8588 1.55467 11.8454 1.55467ZM4.67878 7.94133C3.99211 7.94133 3.41878 7.308 3.41878 6.528C3.41878 5.748 3.97878 5.11467 4.67878 5.11467C5.38544 5.11467 5.94544 5.75467 5.93878 6.528C5.93878 7.308 5.37878 7.94133 4.67878 7.94133ZM9.32544 7.94133C8.63878 7.94133 8.06544 7.308 8.06544 6.528C8.06544 5.748 8.62544 5.11467 9.32544 5.11467C10.0321 5.11467 10.5921 5.75467 10.5854 6.528C10.5854 7.308 10.0321 7.94133 9.32544 7.94133Z" fill="#1D2318"/>
</svg>
